<?xml version="1.0" encoding="utf-8"?>
<svg xmlns="http://www.w3.org/2000/svg"
	xmlns:xlink="http://www.w3.org/1999/xlink"
	width="79px" height="67px" viewBox="0 0 79 67">
<filter filterUnits="objectBoundingBox" x="0.00" y="0.00" width="100.00" height="100.00" id="filter0">
<feImage x="0" y="0" width="79" height="67" preserveApectRatio="none" xlink:href="#symbol0"/>
<feComposite in="grImage1" in2="SourceAlpha" operator="in" result="grOverlay1"/>
<feBlend in="grOverlay1" in2="SourceGraphic" mode="normal" result="gradientOverlay1"/>
</filter>
<linearGradient id="linear_PSgrad_0" x1="0%" y1="87.6777%" x2="100%" y2="12.3223%">
    <stop offset="0%" stop-color="rgb(66,175,17)" stop-opacity="1" />
    <stop offset="100%" stop-color="rgb(74,194,21)" stop-opacity="1" />
</linearGradient>

<defs>
<rect x="0" y="0" width="79" height="67" id="symbol0" fill="url(#linear_PSgrad_0)"/></defs>
<g transform="matrix(0.10 0.00 0.00 0.10 0.00 0.00)" filter="url(#filter0)"><path fillRule="evenodd" d="M 795.6 400.35C 740.23 479.73 684.86 558.95 629.33 638.32 625.37 644.09 620.76 646.89 616.14 646.89 611.86 646.89 607.58 644.42 603.95 639.64 573.63 600.45 543.47 561.42 513.32 522.22 508.7 516.13 504.58 509.54 500.47 503.12 497 497.68 497.66 492.41 501.78 487.47 503.27 485.66 504.58 484.01 506.23 482.37 511.83 476.6 516.45 473.64 521.39 473.64 525.35 473.64 529.63 475.61 534.74 479.4 557.48 496.36 579.73 513.99 602.3 531.44 606.42 534.74 610.54 537.86 614.99 541.32 623.89 531.11 632.46 521.23 641.03 511.35 679.26 467.05 717.49 422.91 755.72 378.61 763.3 369.88 768.24 365.6 773.84 365.6 778.79 365.6 784.23 368.9 792.13 375.32 803.18 384.38 804 388.33 795.6 400.35ZM 617.79 491.09C 615.32 493.73 613.01 496.53 610.71 499.16 607.58 496.86 604.61 494.39 601.48 492.08 585.82 479.9 569.34 467.05 552.87 454.86 542.32 446.96 531.94 443.17 521.39 443.17 504.09 443.17 492.06 453.38 484.48 460.96 482.01 463.59 480.03 465.9 478.22 468.04 465.53 483.35 464.05 503.12 474.59 519.58 474.59 519.58 475.91 521.56 475.91 521.56 479.87 527.82 484.15 534.41 489.09 540.83 507.06 564.38 525.51 588.09 543.64 611.64 487.12 653.97 416.75 679 340.62 679 153.1 679 1 527 1 339.58 1 152.17 153.1 0.16 340.46-0 527.98-0 680.08 152.01 680.08 339.42 680.08 372.52 675.3 404.47 666.4 434.77 650.25 453.55 634.11 472.32 617.79 491.09ZM 323.65 227.27C 329.75 224.63 336.17 223.64 342.77 223.31 367.98 221.83 391.87 226.44 414.61 237.48 425.98 242.91 429.77 241.27 433.56 229.41 437.52 216.89 440.98 204.21 444.6 191.69 447.07 183.3 444.11 177.53 436.03 174.07 421.53 167.65 406.54 163.04 390.72 160.57 370.12 157.44 370.28 157.28 370.12 136.69 369.95 107.54 369.95 107.54 340.79 107.54 336.67 107.54 332.38 107.38 328.1 107.54 314.42 107.87 312.12 110.17 311.79 124.01 311.79 130.1 311.79 136.36 311.79 142.45 311.62 160.73 311.62 160.4 294.15 166.83 251.8 182.14 225.77 210.96 222.97 257.07 220.49 297.92 241.75 325.42 275.37 345.51 296.13 357.86 318.87 365.27 340.79 374.83 349.36 378.61 357.43 382.9 364.68 388.82 385.77 406.12 381.82 435.1 356.94 445.97 343.42 451.73 329.42 453.22 314.92 451.4 292.51 448.6 271.08 442.84 250.98 432.3 239.12 426.04 235.65 427.69 231.7 440.53 228.24 451.57 225.27 462.77 222.14 473.97 218.02 488.95 219.51 492.58 233.84 499.49 252.13 508.22 271.58 512.83 291.52 515.96 307.17 518.43 307.67 519.09 307.83 535.23 307.83 542.48 307.83 549.89 308 557.13 308.16 566.35 312.61 571.79 322 571.95 332.88 572.28 343.75 572.28 354.47 571.95 363.2 571.62 367.81 566.85 367.81 557.96 367.81 547.91 368.31 537.86 367.81 527.82 367.32 517.61 371.6 512.34 381.49 509.7 404.07 503.61 423.34 491.42 438.18 473.47 479.21 423.57 463.39 350.62 404.89 318.67 386.6 308.62 367.32 300.88 348.04 292.98 337 288.37 326.29 282.93 316.89 275.52 298.44 260.7 301.9 236.82 323.65 227.27Z" fill="rgb(0,0,0)"/></g></svg>