<?xml version="1.0" encoding="utf-8"?>
<svg xmlns="http://www.w3.org/2000/svg"
	xmlns:xlink="http://www.w3.org/1999/xlink"
	width="59px" height="69px" viewBox="0 0 59 69">
<filter filterUnits="objectBoundingBox" x="0.00" y="0.00" width="100.00" height="100.00" id="filter0">
<feImage x="0" y="0" width="59" height="69" preserveApectRatio="none" xlink:href="#symbol0"/>
<feComposite in="grImage1" in2="SourceAlpha" operator="in" result="grOverlay1"/>
<feBlend in="grOverlay1" in2="SourceGraphic" mode="normal" result="gradientOverlay1"/>
</filter>
<linearGradient id="linear_PSgrad_0" x1="0%" y1="87.6777%" x2="100%" y2="12.3223%">
    <stop offset="0%" stop-color="rgb(66,175,17)" stop-opacity="1" />
    <stop offset="100%" stop-color="rgb(74,194,21)" stop-opacity="1" />
</linearGradient>

<defs>
<rect x="0" y="0" width="59" height="69" id="symbol0" fill="url(#linear_PSgrad_0)"/></defs>
<g transform="matrix(0.09 0.00 0.00 0.09 0.00 0.00)" filter="url(#filter0)"><path fillRule="evenodd" d="M 653.02 562.5C 653.02 562.5 630.86 562.5 630.86 562.5 617.03 607.5 590.21 647.83 553.9 680.17 553.56 680.5 553.23 680.67 552.9 681 551.73 682 550.57 683 549.4 684 516.75 713.5 513.75 748 513.58 756.67 513.58 756.67 513.58 782.67 513.58 782.67 513.58 792.33 505.75 800 496.26 800 496.26 800 390.64 800 390.64 800 380.98 800 373.32 792.17 373.32 782.67 373.32 782.67 373.32 757.83 373.32 757.83 361.16 759.17 349 759.83 336.5 759.83 320.68 759.83 305.02 758.67 289.69 756.67 289.69 756.67 289.69 782.67 289.69 782.67 289.69 792.33 281.86 800 272.37 800 272.37 800 167.08 800 167.08 800 157.92 800 150.43 792.83 149.76 783.83 149.76 783.83 149.76 783.83 149.76 783.67 149.76 783.33 149.76 783 149.76 782.67 149.76 782.67 149.76 774.83 149.76 774.83 148.93 756.5 143.26 714.17 110.11 680 87.12 656.5 70.47 627.5 58.97 602.67 50.31 585.83 43.48 568 38.98 549.5 38.81 549 38.81 548.67 38.81 548.67 34.48 530.83 32.15 512.33 32.15 493.33 32.15 458.17 39.81 424.67 53.97 394 94.79 425.33 145.76 444 201.23 444 315.35 444 411.13 364.83 436.79 258.5 440.45 243.33 448.78 229.67 460.44 219.5 477.43 204.67 502.09 191.5 537.9 187 553.9 185 564.89 202.5 556.4 216.17 544.23 235.67 533.74 262.83 542.24 292.67 542.57 294.17 542.9 295.83 542.9 297.33 583.38 330 613.7 372.17 629.19 419.67 629.19 419.67 652.68 419.67 652.68 419.67 670.34 419.67 684.67 434 685 451.67 685 451.67 685 530.5 685 530.5 685 548.17 670.67 562.5 653.02 562.5ZM 520.91 373C 506.42 373 494.76 384.67 494.76 399.17 494.76 413.67 506.42 425.33 520.91 425.33 535.41 425.33 547.07 413.67 547.07 399.17 547.07 384.67 535.41 373 520.91 373ZM 201.23 402.83C 90.12 402.83-0 312.5-0 201.33-0 90.17 90.12 0 201.23 0 312.35 0 402.47 90.33 402.47 201.5 402.47 312.67 312.35 402.83 201.23 402.83ZM 191.07 134.33C 194.74 132.67 198.4 132.17 202.4 132 217.39 131.17 231.55 134 245.05 140.5 251.71 143.67 253.88 142.67 256.21 135.67 258.71 128.33 260.71 120.83 262.87 113.33 264.2 108.33 262.54 105 257.71 102.83 249.05 99 240.22 96.33 230.89 94.83 218.73 93 218.73 92.83 218.73 80.67 218.73 63.33 218.73 63.33 201.4 63.33 198.9 63.33 196.4 63.33 193.91 63.33 185.91 63.67 184.41 65 184.24 73.17 184.24 76.83 184.24 80.5 184.24 84.17 184.08 95 184.08 94.83 173.75 98.67 148.76 107.67 133.27 124.83 131.6 152.17 130.1 176.33 142.76 192.83 162.59 204.67 174.91 212 188.41 216.33 201.4 222 206.4 224.17 211.23 226.83 215.56 230.33 228.06 240.67 225.72 257.83 210.9 264.33 203.07 267.83 194.57 268.67 186.08 267.67 172.75 266 160.09 262.5 148.09 256.33 141.1 252.67 138.93 253.5 136.6 261.17 134.6 267.83 132.77 274.33 130.94 281 128.6 289.83 129.44 292 137.6 295.83 148.43 301.17 159.92 303.83 171.75 305.67 181.08 307.17 181.24 307.67 181.41 317.17 181.58 321.5 181.58 325.83 181.58 330.17 181.58 335.67 184.24 338.83 189.91 339 196.24 339.17 202.73 339.17 209.06 339 214.4 338.83 217.06 336 217.06 330.67 217.06 324.67 217.39 318.83 217.06 312.83 216.73 306.83 219.39 303.83 225.22 302.17 238.72 298.5 250.04 291.33 258.87 280.67 283.2 251.17 273.87 207.83 239.38 188.67 228.39 182.67 216.89 178 205.57 173.33 198.9 170.67 192.57 167.5 187.08 163 176.08 154.17 178.25 140 191.07 134.33Z" fill="rgb(0,0,0)"/></g></svg>